<svg width="80" height="27" viewBox="0 0 80 27" fill="none" xmlns="http://www.w3.org/2000/svg">
<path d="M76.1949 15.9638C75.8212 16.9572 74.8885 17.5084 73.736 17.5084C72.0257 17.5084 70.6391 16.1385 70.6391 14.4487C70.6391 12.7588 72.0257 11.3888 73.736 11.3888C74.8886 11.3888 75.7925 11.8746 76.1949 12.9337H79.3534C78.8302 10.2182 76.5453 8.4753 73.736 8.4753C70.397 8.4753 67.6902 11.1497 67.6902 14.4487C67.6902 17.7476 70.397 20.422 73.736 20.422C76.5452 20.422 78.9736 18.4721 79.3534 15.9638H76.1949ZM63.1878 8.77539H66.4763V20.2108H63.1878V8.77529V8.77539ZM66.8072 6.01175C66.8072 7.09512 65.9183 7.9733 64.8219 7.9733C63.7254 7.9733 62.8366 7.09512 62.8366 6.01175C62.8366 4.92847 63.7254 4.05029 64.8219 4.05029C65.9183 4.05029 66.8072 4.92847 66.8072 6.01175ZM53.7682 10.1748C54.3196 9.19109 55.5728 8.51956 57.3775 8.51956C60.295 8.51956 61.839 10.3545 61.839 13.0785V20.2103H58.5505V13.4191C58.5505 12.0854 57.949 11.1679 56.4952 11.1679C54.9011 11.1679 54.0188 12.1327 54.0188 13.6555V20.2008H50.7303V8.77491H53.7682V10.1748Z" fill="#001A3A"/>
<path fill-rule="evenodd" clip-rule="evenodd" d="M43.6207 17.5083C45.3309 17.5083 46.7174 16.1385 46.7174 14.4488C46.7174 12.759 45.3309 11.3892 43.6207 11.3892C41.9104 11.3892 40.524 12.759 40.524 14.4488C40.524 16.1385 41.9104 17.5083 43.6207 17.5083ZM43.6207 20.4219C46.9596 20.4219 49.6662 17.7477 49.6662 14.4488C49.6662 11.1499 46.9596 8.47559 43.6207 8.47559C40.2818 8.47559 37.575 11.1499 37.575 14.4488C37.575 17.7477 40.2818 20.4219 43.6207 20.4219Z" fill="#001A3A"/>
<path d="M33.1317 8.77529H36.4202V20.2107H33.1317V8.77519V8.77529ZM36.751 6.01165C36.751 7.09502 35.8622 7.9732 34.7658 7.9732C33.6693 7.9732 32.7805 7.09502 32.7805 6.01165C32.7805 4.92837 33.6693 4.05019 34.7658 4.05019C35.8622 4.05019 36.751 4.92837 36.751 6.01165ZM3.27805 13.5C3.27805 7.83357 7.92556 3.24 13.6585 3.24C15.9663 3.24 18.0972 3.98318 19.8213 5.24273C20.2734 4.19069 21.1847 3.37799 22.3065 3.05023C19.9522 1.14509 16.9398 0 13.6585 0C6.11512 0 0 6.04414 0 13.5C0 20.9559 6.11512 27 13.6585 27C21.202 27 27.3171 20.9559 27.3171 13.5C27.3171 11.9396 27.0486 10.4385 26.554 9.04114C25.8812 9.94024 24.8223 10.5401 23.6195 10.6016C23.8924 11.5196 24.039 12.4919 24.039 13.5C24.039 19.1664 19.3915 23.76 13.6585 23.76C7.92556 23.76 3.27805 19.1664 3.27805 13.5Z" fill="#001A3A"/>
<path d="M24 12.6225C23.8918 11.4865 23.7215 10.9602 23.6195 10.5975C25.1739 10.5139 26.1041 9.63637 26.5507 9.0415C26.7463 9.54158 26.9732 10.407 27.0333 10.7684C26.5171 11.4557 25.5024 12.4007 24 12.6225Z" fill="#001A3A"/>
<path d="M13.6585 19.4062C16.951 19.4062 19.6341 16.7593 19.6341 13.5C19.6341 10.2457 16.9561 7.59375 13.6585 7.59375C10.361 7.59375 7.68292 10.2457 7.68292 13.5C7.68292 16.7543 10.366 19.4062 13.6585 19.4062ZM22.6219 8.4375C24.2721 8.4375 25.6098 7.11537 25.6098 5.48438C25.6098 3.85338 24.2721 2.53125 22.6219 2.53125C20.9718 2.53125 19.6341 3.85338 19.6341 5.48438C19.6341 7.11537 20.9718 8.4375 22.6219 8.4375Z" fill="#001A3A"/>
</svg>
